<svg width="64" height="64" viewBox="0 0 64 64" fill="none" xmlns="http://www.w3.org/2000/svg">
<g clip-path="url(#clip0_88_3)">
<path fill-rule="evenodd" clip-rule="evenodd" d="M39.214 13.132C38.7186 12.9427 38.1682 12.9579 37.684 13.1743C37.1998 13.3907 36.8214 13.7906 36.632 14.286L23.632 48.286C23.5339 48.5322 23.4858 48.7954 23.4903 49.0603C23.4949 49.3253 23.552 49.5867 23.6584 49.8294C23.7649 50.0721 23.9185 50.2912 24.1103 50.474C24.3022 50.6568 24.5284 50.7996 24.776 50.8943C25.0235 50.9889 25.2873 51.0334 25.5522 51.0251C25.8171 51.0169 26.0777 50.9561 26.3188 50.8463C26.56 50.7364 26.7769 50.5798 26.9571 50.3854C27.1372 50.191 27.2769 49.9628 27.368 49.714L40.368 15.714C40.5573 15.2186 40.5421 14.6682 40.3257 14.184C40.1093 13.6998 39.7094 13.3214 39.214 13.132ZM54.14 28.852L43.509 22.298C43.2855 22.1602 43.037 22.0677 42.7778 22.0259C42.5185 21.9841 42.2536 21.9938 41.9981 22.0544C41.7426 22.115 41.5015 22.2253 41.2887 22.3791C41.0758 22.5328 40.8953 22.727 40.7575 22.9505C40.6197 23.174 40.5272 23.4225 40.4854 23.6817C40.4436 23.9409 40.4533 24.2059 40.5139 24.4614C40.5745 24.7169 40.6848 24.9579 40.8386 25.1708C40.9923 25.3837 41.1865 25.5642 41.41 25.702L51.533 31.943C51.543 31.9803 51.543 32.0197 51.533 32.057L41.41 38.298C41.1806 38.4329 40.9804 38.6123 40.8212 38.8256C40.662 39.0389 40.547 39.2818 40.4828 39.5401C40.4187 39.7985 40.4068 40.067 40.4478 40.33C40.4888 40.5929 40.5819 40.8451 40.7216 41.0717C40.8613 41.2982 41.0448 41.4946 41.2613 41.6493C41.4779 41.804 41.7232 41.914 41.9828 41.9727C42.2424 42.0314 42.5111 42.0377 42.7732 41.9912C43.0353 41.9447 43.2854 41.8464 43.509 41.702L54.14 35.148L54.305 34.983C55.0946 34.191 55.538 33.1183 55.538 32C55.538 30.8817 55.0946 29.809 54.305 29.017L54.14 28.852Z" fill="#FFC107"/>
<mask id="mask0_88_3" style="mask-type:luminance" maskUnits="userSpaceOnUse" x="0" y="0" width="64" height="64">
<path d="M0.0599976 64V0.0400391H64V64H0.0599976Z" fill="#FFFFFE"/>
</mask>
<g mask="url(#mask0_88_3)">
<path fill-rule="evenodd" clip-rule="evenodd" d="M22.59 38.298L12.467 32.057C12.457 32.0196 12.457 31.9803 12.467 31.943L22.59 25.702C22.8194 25.567 23.0196 25.3877 23.1788 25.1744C23.338 24.9611 23.453 24.7181 23.5172 24.4598C23.5813 24.2015 23.5932 23.933 23.5522 23.67C23.5112 23.407 23.4181 23.1548 23.2784 22.9283C23.1387 22.7017 22.9552 22.5054 22.7387 22.3506C22.5221 22.1959 22.2768 22.086 22.0172 22.0273C21.7576 21.9686 21.4889 21.9623 21.2268 22.0088C20.9647 22.0552 20.7146 22.1536 20.491 22.298L9.86 28.852L9.695 29.017C8.90542 29.8089 8.46204 30.8816 8.46204 32C8.46204 33.1183 8.90542 34.191 9.695 34.983L9.86 35.148L20.491 41.702C20.9424 41.9803 21.4859 42.0679 22.0019 41.9456C22.5179 41.8232 22.9642 41.5009 23.2425 41.0495C23.5208 40.5981 23.6085 40.0546 23.4861 39.5386C23.3637 39.0226 23.0414 38.5763 22.59 38.298Z" fill="#FFC107"/>
</g>
<mask id="mask1_88_3" style="mask-type:luminance" maskUnits="userSpaceOnUse" x="0" y="0" width="64" height="64">
<path d="M0.0599976 64V0.0400391H64V64H0.0599976Z" fill="#4C5665"/>
</mask>
<g mask="url(#mask1_88_3)">
<path fill-rule="evenodd" clip-rule="evenodd" d="M54.305 34.983L54.14 35.148L43.509 41.702C43.0576 41.9803 42.5141 42.068 41.9981 41.9456C41.4821 41.8232 41.0358 41.5009 40.7575 41.0495C40.4792 40.5981 40.3915 40.0546 40.5139 39.5386C40.6363 39.0226 40.9586 38.5763 41.41 38.298L51.533 32.057C51.543 32.0197 51.543 31.9803 51.533 31.943L41.41 25.702C41.1806 25.5671 40.9804 25.3877 40.8212 25.1744C40.662 24.9611 40.547 24.7182 40.4828 24.4599C40.4187 24.2015 40.4068 23.933 40.4478 23.67C40.4888 23.4071 40.5819 23.1549 40.7216 22.9283C40.8613 22.7018 41.0448 22.5054 41.2613 22.3507C41.4779 22.196 41.7232 22.086 41.9828 22.0273C42.2424 21.9686 42.5111 21.9623 42.7732 22.0088C43.0353 22.0553 43.2854 22.1536 43.509 22.298L54.14 28.852L54.305 29.017C55.0946 29.809 55.538 30.8817 55.538 32C55.538 33.1183 55.0946 34.191 54.305 34.983ZM27.368 49.714C27.2769 49.9628 27.1372 50.1911 26.9571 50.3854C26.7769 50.5798 26.56 50.7365 26.3188 50.8463C26.0777 50.9561 25.8171 51.0169 25.5522 51.0251C25.2873 51.0334 25.0235 50.9889 24.776 50.8943C24.5284 50.7997 24.3022 50.6568 24.1103 50.474C23.9185 50.2912 23.7649 50.0721 23.6584 49.8294C23.552 49.5867 23.4949 49.3253 23.4903 49.0604C23.4858 48.7954 23.5339 48.5322 23.632 48.286L36.632 14.286C36.7231 14.0372 36.8628 13.8089 37.0429 13.6146C37.2231 13.4202 37.44 13.2635 37.6812 13.1537C37.9223 13.0439 38.1829 12.9831 38.4478 12.9749C38.7127 12.9666 38.9765 13.0111 39.224 13.1057C39.4716 13.2003 39.6978 13.3432 39.8897 13.526C40.0815 13.7088 40.2351 13.9279 40.3416 14.1706C40.448 14.4133 40.5051 14.6747 40.5097 14.9396C40.5142 15.2046 40.4661 15.4678 40.368 15.714L27.368 49.714ZM21.539 42C21.181 42 20.818 41.904 20.491 41.702L9.86 35.148L9.695 34.983C8.90542 34.191 8.46205 33.1183 8.46205 32C8.46205 30.8817 8.90542 29.809 9.695 29.017L9.86 28.852L20.491 22.298C20.9424 22.0197 21.4859 21.932 22.0019 22.0544C22.5179 22.1768 22.9642 22.4991 23.2425 22.9505C23.5208 23.4019 23.6085 23.9454 23.4861 24.4614C23.3637 24.9774 23.0414 25.4237 22.59 25.702L12.467 31.943C12.457 31.9803 12.457 32.0197 12.467 32.057L22.59 38.298C22.9604 38.5266 23.2462 38.8698 23.4039 39.2756C23.5615 39.6813 23.5825 40.1275 23.4636 40.5462C23.3448 40.965 23.0925 41.3335 22.7451 41.5959C22.3978 41.8583 21.9743 42.0001 21.539 42ZM32 0C14.327 0 0 14.327 0 32C0 49.673 14.327 64 32 64C49.673 64 64 49.673 64 32C64 14.327 49.673 0 32 0Z" fill="#2C2C37"/>
</g>
</g>
<defs>
<clipPath id="clip0_88_3">
<rect width="64" height="64" fill="white"/>
</clipPath>
</defs>
</svg>
